<mxfile host="app.diagrams.net" modified="2023-04-24T01:13:20.698Z" agent="Mozilla/5.0 (Windows NT 10.0; Win64; x64) AppleWebKit/537.36 (KHTML, like Gecko) Chrome/112.0.0.0 Safari/537.36 Edg/112.0.1722.58" etag="7_Btw_n1a3YIw1YlEj-B" version="21.2.1" type="github">
  <diagram id="C5RBs43oDa-KdzZeNtuy" name="Page-1">
    <mxGraphModel dx="1210" dy="491" grid="0" gridSize="10" guides="1" tooltips="1" connect="1" arrows="1" fold="1" page="0" pageScale="1" pageWidth="827" pageHeight="1169" background="none" math="0" shadow="0">
      <root>
        <mxCell id="WIyWlLk6GJQsqaUBKTNV-0" />
        <mxCell id="WIyWlLk6GJQsqaUBKTNV-1" parent="WIyWlLk6GJQsqaUBKTNV-0" />
        <mxCell id="WIyWlLk6GJQsqaUBKTNV-2" value="" style="rounded=0;html=1;jettySize=auto;orthogonalLoop=1;fontSize=11;endArrow=block;endFill=0;endSize=8;strokeWidth=1;shadow=0;labelBackgroundColor=none;edgeStyle=orthogonalEdgeStyle;entryX=0.5;entryY=0;entryDx=0;entryDy=0;" parent="WIyWlLk6GJQsqaUBKTNV-1" source="WIyWlLk6GJQsqaUBKTNV-3" target="bhrCNKCMwHMsKoFSquoO-3" edge="1">
          <mxGeometry relative="1" as="geometry">
            <mxPoint x="220" y="170" as="targetPoint" />
            <Array as="points" />
          </mxGeometry>
        </mxCell>
        <mxCell id="WIyWlLk6GJQsqaUBKTNV-3" value="DataColletor:updateVmByZa24" style="rounded=1;whiteSpace=wrap;html=1;fontSize=12;glass=0;strokeWidth=1;shadow=0;" parent="WIyWlLk6GJQsqaUBKTNV-1" vertex="1">
          <mxGeometry x="125" y="80" width="190" height="40" as="geometry" />
        </mxCell>
        <mxCell id="bhrCNKCMwHMsKoFSquoO-8" style="edgeStyle=orthogonalEdgeStyle;rounded=0;orthogonalLoop=1;jettySize=auto;html=1;exitX=0.5;exitY=1;exitDx=0;exitDy=0;entryX=0.5;entryY=0;entryDx=0;entryDy=0;" edge="1" parent="WIyWlLk6GJQsqaUBKTNV-1" source="bhrCNKCMwHMsKoFSquoO-3" target="bhrCNKCMwHMsKoFSquoO-6">
          <mxGeometry relative="1" as="geometry" />
        </mxCell>
        <mxCell id="bhrCNKCMwHMsKoFSquoO-3" value="DataService:collectData" style="rounded=1;whiteSpace=wrap;html=1;fontSize=12;glass=0;strokeWidth=1;shadow=0;" vertex="1" parent="WIyWlLk6GJQsqaUBKTNV-1">
          <mxGeometry x="125" y="150" width="190" height="40" as="geometry" />
        </mxCell>
        <mxCell id="bhrCNKCMwHMsKoFSquoO-4" value="全局的事务管控，针对service包下的类，以query/update/insert/delete开头的方法都会开启事务。" style="text;html=1;strokeColor=none;fillColor=none;align=center;verticalAlign=middle;whiteSpace=wrap;rounded=0;" vertex="1" parent="WIyWlLk6GJQsqaUBKTNV-1">
          <mxGeometry x="112" width="288" height="57.5" as="geometry" />
        </mxCell>
        <mxCell id="bhrCNKCMwHMsKoFSquoO-10" style="edgeStyle=orthogonalEdgeStyle;rounded=0;orthogonalLoop=1;jettySize=auto;html=1;exitX=1;exitY=0.5;exitDx=0;exitDy=0;entryX=0;entryY=0.5;entryDx=0;entryDy=0;" edge="1" parent="WIyWlLk6GJQsqaUBKTNV-1" source="bhrCNKCMwHMsKoFSquoO-6" target="bhrCNKCMwHMsKoFSquoO-9">
          <mxGeometry relative="1" as="geometry" />
        </mxCell>
        <mxCell id="bhrCNKCMwHMsKoFSquoO-6" value="UpdateVmByZa24Service extends AbstractCollectDataFromCmdbService&amp;lt;Map&amp;lt;String,Object&amp;gt;, CmdbResponse&amp;gt; : collecData" style="rounded=1;whiteSpace=wrap;html=1;fontSize=12;glass=0;strokeWidth=1;shadow=0;" vertex="1" parent="WIyWlLk6GJQsqaUBKTNV-1">
          <mxGeometry x="-22.5" y="220" width="485" height="70" as="geometry" />
        </mxCell>
        <mxCell id="bhrCNKCMwHMsKoFSquoO-12" value="" style="edgeStyle=orthogonalEdgeStyle;rounded=0;orthogonalLoop=1;jettySize=auto;html=1;" edge="1" parent="WIyWlLk6GJQsqaUBKTNV-1" source="bhrCNKCMwHMsKoFSquoO-9" target="bhrCNKCMwHMsKoFSquoO-11">
          <mxGeometry relative="1" as="geometry" />
        </mxCell>
        <mxCell id="bhrCNKCMwHMsKoFSquoO-9" value="(@CollectModule)collecData: initStatusCode" style="rounded=1;whiteSpace=wrap;html=1;fontSize=12;glass=0;strokeWidth=1;shadow=0;" vertex="1" parent="WIyWlLk6GJQsqaUBKTNV-1">
          <mxGeometry x="557" y="235" width="190" height="40" as="geometry" />
        </mxCell>
        <mxCell id="bhrCNKCMwHMsKoFSquoO-11" value="(@CollectModule)collecData: collecDataByPage" style="rounded=1;whiteSpace=wrap;html=1;fontSize=12;glass=0;strokeWidth=1;shadow=0;" vertex="1" parent="WIyWlLk6GJQsqaUBKTNV-1">
          <mxGeometry x="557" y="307" width="190" height="40" as="geometry" />
        </mxCell>
        <mxCell id="bhrCNKCMwHMsKoFSquoO-13" value="" style="rounded=1;whiteSpace=wrap;html=1;fontSize=12;glass=0;strokeWidth=1;shadow=0;" vertex="1" parent="WIyWlLk6GJQsqaUBKTNV-1">
          <mxGeometry x="789" y="307" width="190" height="40" as="geometry" />
        </mxCell>
      </root>
    </mxGraphModel>
  </diagram>
</mxfile>
